<svg xmlns="http://www.w3.org/2000/svg" width="400" height="500" viewBox="0 0 400 500">
  <defs>
    <style>
      .cls-1 {
        fill-rule: evenodd;
      }
    </style>
  </defs>
  <g id="Plan_de_travail_1" data-name="Plan de travail 1">
    <path id="Fond_1" data-name="Fond 1" class="cls-1" d="M143.513,218.691v-27.74h-1.09v27.74h1.09Zm-4.794,0v-27.74h-1.09v27.74h1.09Zm2.4,0v-27.74h-1.09v27.74h1.09Zm16.125-4.554V213.1H144.82v1.035h12.421Zm0,2.277v-1.035H144.82v1.035h12.421Zm0,2.277v-1.035H144.82v1.035h12.421Zm15.236-4.83a5.078,5.078,0,0,0,2.033-2.122,6.436,6.436,0,0,0,.672-2.95V190.951h-1.089v17.838a5.109,5.109,0,0,1-1.2,3.416,5.944,5.944,0,0,1-7.7,0,5.109,5.109,0,0,1-1.2-3.416V190.951h-1.089v17.838a6.424,6.424,0,0,0,.672,2.95,5.072,5.072,0,0,0,2.033,2.122A7.816,7.816,0,0,0,172.477,213.861Zm2.415,3.951a9.8,9.8,0,0,0,3.759-3.778,10.607,10.607,0,0,0,1.325-5.245V190.951h-1.089v17.838a9.62,9.62,0,0,1-1.181,4.727,8.72,8.72,0,0,1-3.377,3.4,11.72,11.72,0,0,1-10.569,0,8.713,8.713,0,0,1-3.377-3.4,9.609,9.609,0,0,1-1.181-4.727V190.951h-1.089v17.838a10.6,10.6,0,0,0,1.325,5.245,9.761,9.761,0,0,0,3.777,3.778A12.9,12.9,0,0,0,174.892,217.812Zm-1.217-1.984a7.5,7.5,0,0,0,2.906-2.95,8.458,8.458,0,0,0,1-4.089V190.951H176.49v17.838a7.482,7.482,0,0,1-.854,3.571,6.454,6.454,0,0,1-2.506,2.571,9.084,9.084,0,0,1-8.153,0,6.416,6.416,0,0,1-2.524-2.571,7.482,7.482,0,0,1-.854-3.571V190.951H160.51v17.838a8.447,8.447,0,0,0,1,4.089,7.488,7.488,0,0,0,2.906,2.95A10.263,10.263,0,0,0,173.675,215.828Zm28.6-1.932a9.691,9.691,0,0,0,3.2-2.036l-0.763-.725a8.746,8.746,0,0,1-2.869,1.794,10.36,10.36,0,0,1-3.813.656,9.928,9.928,0,0,1-4.994-1.19,8.111,8.111,0,0,1-3.178-3.175,9.422,9.422,0,0,1,0-8.8,8.115,8.115,0,0,1,3.178-3.174,9.928,9.928,0,0,1,4.994-1.19,10.4,10.4,0,0,1,3.813.655,8.779,8.779,0,0,1,2.869,1.794l0.763-.724a9.212,9.212,0,0,0-3.2-2.053,11.555,11.555,0,0,0-4.249-.742,11.012,11.012,0,0,0-5.557,1.329,9.166,9.166,0,0,0-3.559,3.553,10.507,10.507,0,0,0,0,9.885,9.124,9.124,0,0,0,3.559,3.571,11.012,11.012,0,0,0,5.557,1.329A11.311,11.311,0,0,0,202.276,213.9ZM203.2,216a12.509,12.509,0,0,0,3.977-2.518l-0.8-.76a10.377,10.377,0,0,1-3.614,2.312,12.953,12.953,0,0,1-4.739.828,12.407,12.407,0,0,1-6.193-1.483,10.37,10.37,0,0,1-4.049-4,11.63,11.63,0,0,1,0-11.127,10.414,10.414,0,0,1,4.049-3.985,12.407,12.407,0,0,1,6.193-1.483,12.953,12.953,0,0,1,4.739.828,10.4,10.4,0,0,1,3.614,2.311l0.8-.759a11.988,11.988,0,0,0-3.977-2.536,15.175,15.175,0,0,0-10.423.018,11.894,11.894,0,0,0-4.032,2.6,11.438,11.438,0,0,0-2.578,3.864,12.905,12.905,0,0,0,0,9.419,11.263,11.263,0,0,0,2.578,3.847,12.248,12.248,0,0,0,4.032,2.605,13.852,13.852,0,0,0,5.248.949A13.713,13.713,0,0,0,203.2,216Zm0.926,2.1a14.814,14.814,0,0,0,4.758-3l-0.763-.724a13.639,13.639,0,0,1-4.413,2.777,16.5,16.5,0,0,1-11.458-.017,13.227,13.227,0,0,1-4.431-2.864,12.7,12.7,0,0,1-2.851-4.261,13.994,13.994,0,0,1,0-10.385,12.7,12.7,0,0,1,2.851-4.261,13.243,13.243,0,0,1,4.431-2.864,16.5,16.5,0,0,1,11.458-.017,13.639,13.639,0,0,1,4.413,2.777l0.763-.724a14.279,14.279,0,0,0-4.758-3.019,17.666,17.666,0,0,0-12.294.034,14.416,14.416,0,0,0-4.776,3.088,13.851,13.851,0,0,0-3.087,4.572,14.976,14.976,0,0,0,0,11.213A13.851,13.851,0,0,0,187.058,215a14.416,14.416,0,0,0,4.776,3.088A17.539,17.539,0,0,0,204.128,218.105Zm12.82,0.586,10.569-27.74h-1.163l-10.568,27.74h1.162Zm-5.085,0,10.533-27.74H221.27L210.7,218.691h1.162Zm2.543,0,10.568-27.74h-1.2l-10.533,27.74h1.163Zm23.825,0L228.17,192.262l-0.581,1.553,9.479,24.876h1.163Zm-2.543,0L226.9,195.609l-0.545,1.587,8.172,21.5h1.162Zm-2.542,0-7.482-19.7-0.581,1.553,6.9,18.148h1.162Zm-5.847-9.177-0.4-1.035h-4.794l-0.4,1.035H227.3Zm0.871,2.311-0.4-1.035h-6.537l-0.4,1.035h7.336Zm0.872,2.278-0.4-1.035h-8.28l-0.4,1.035h9.08Zm25.968-.535a3.266,3.266,0,0,0,1.706-2.847,2.894,2.894,0,0,0-1.38-2.518,12.854,12.854,0,0,0-3.886-1.587l-2.251-.587a16.327,16.327,0,0,1-6.193-2.777,5.568,5.568,0,0,1-2.088-4.538,5.933,5.933,0,0,1,1.253-3.726,8.55,8.55,0,0,1,3.414-2.57,12.118,12.118,0,0,1,4.921-.949,12.9,12.9,0,0,1,4.54.759,8.709,8.709,0,0,1,3.341,2.139,6.144,6.144,0,0,1,1.634,3.209l1.054-.276a7.14,7.14,0,0,0-1.871-3.623,9.776,9.776,0,0,0-3.7-2.4,14.031,14.031,0,0,0-4.994-.845,13.382,13.382,0,0,0-5.466,1.069,9.483,9.483,0,0,0-3.813,2.916,6.808,6.808,0,0,0-1.4,4.226,6.4,6.4,0,0,0,2.288,5.21,18.294,18.294,0,0,0,6.792,3.14l2.252,0.621a12.8,12.8,0,0,1,3.268,1.277,2.162,2.162,0,0,1,1.2,1.9,2.33,2.33,0,0,1-1.435,2.036,7.653,7.653,0,0,1-3.722.794,7.4,7.4,0,0,1-3.614-.777,2.255,2.255,0,0,1-1.4-1.949l-1.053.276a3.207,3.207,0,0,0,1.815,2.536,8.521,8.521,0,0,0,4.25.949A8.37,8.37,0,0,0,255.01,213.568Zm-0.019,2.57a7.182,7.182,0,0,0,3.033-2.191,5.1,5.1,0,0,0,1.089-3.226,4.74,4.74,0,0,0-1.888-3.95,14.764,14.764,0,0,0-5.266-2.364l-2.179-.586a16.156,16.156,0,0,1-4.813-2,3.578,3.578,0,0,1-1.652-3.106,3.924,3.924,0,0,1,.926-2.57,6.13,6.13,0,0,1,2.561-1.76,10.126,10.126,0,0,1,3.7-.638,9.3,9.3,0,0,1,4.921,1.208,4.317,4.317,0,0,1,2.234,3.208l1.089-.276a5.034,5.034,0,0,0-1.38-2.725,7.446,7.446,0,0,0-2.887-1.812,11.635,11.635,0,0,0-3.977-.638,11.09,11.09,0,0,0-4.249.776,7.171,7.171,0,0,0-2.96,2.122,4.839,4.839,0,0,0-1.072,3.1,4.468,4.468,0,0,0,1.889,3.761,15.838,15.838,0,0,0,5.411,2.346l2.216,0.587a13.552,13.552,0,0,1,4.612,1.984,3.912,3.912,0,0,1,1.671,3.329,4.174,4.174,0,0,1-.944,2.692,6.134,6.134,0,0,1-2.652,1.828,11,11,0,0,1-3.958.656,9.592,9.592,0,0,1-5.067-1.208,4.426,4.426,0,0,1-2.27-3.209l-1.089.276a5.421,5.421,0,0,0,2.706,3.744,10.649,10.649,0,0,0,5.72,1.432A11.876,11.876,0,0,0,254.991,216.138Zm1.235,2a9.144,9.144,0,0,0,3.886-2.984,7.214,7.214,0,0,0,1.4-4.365,6.692,6.692,0,0,0-2.325-5.365,17.769,17.769,0,0,0-6.719-3.226l-2.07-.586a18.761,18.761,0,0,1-3.4-1.242,1.956,1.956,0,0,1-1.289-1.726,2.154,2.154,0,0,1,1.4-1.9,7.308,7.308,0,0,1,3.4-.725,6.869,6.869,0,0,1,3.432.759,2.422,2.422,0,0,1,1.4,1.967l1.054-.276a3.474,3.474,0,0,0-1.816-2.519,7.773,7.773,0,0,0-4.068-.966,7.981,7.981,0,0,0-4.213,1.018,3.07,3.07,0,0,0-1.671,2.708,2.613,2.613,0,0,0,1.417,2.312,16.313,16.313,0,0,0,4.068,1.587l2.142,0.587a16.268,16.268,0,0,1,6.029,2.829,5.763,5.763,0,0,1,2.143,4.692,6.3,6.3,0,0,1-1.253,3.882,8.269,8.269,0,0,1-3.487,2.622,13.239,13.239,0,0,1-5.211.949,13.542,13.542,0,0,1-4.685-.759,8.606,8.606,0,0,1-3.36-2.122,6.359,6.359,0,0,1-1.652-3.226l-1.054.276a7.3,7.3,0,0,0,1.907,3.64,9.837,9.837,0,0,0,3.741,2.381A15.929,15.929,0,0,0,256.226,218.139ZM76.251,262.274v-27.74h-1.09v27.74h1.09Zm-4.794,0v-27.74h-1.09v27.74h1.09Zm2.4,0v-27.74h-1.09v27.74h1.09Zm18.2-26.705v-1.035H77.559v1.035H92.05Zm0,2.277v-1.035H77.559v1.035H92.05Zm0,2.277v-1.035H77.559v1.035H92.05Zm-2.07,6.521v-1.035H77.559v1.035H89.98Zm0,2.277v-1.035H77.559v1.035H89.98Zm0,2.277v-1.035H77.559V251.2H89.98Zm10.5,11.076v-27.74H99.386v27.74h1.089Zm-4.793,0v-27.74h-1.09v27.74h1.09Zm2.4,0v-27.74h-1.09v27.74h1.09Zm12.239-11.593a9.132,9.132,0,0,0,4.3-1.018,7.938,7.938,0,0,0,3.087-2.829,8.379,8.379,0,0,0,0-8.453,7.941,7.941,0,0,0-3.087-2.83,9.143,9.143,0,0,0-4.3-1.017h-8.535v1.035h8.535a8.156,8.156,0,0,1,3.759.862,6.734,6.734,0,0,1,2.687,2.45,7.448,7.448,0,0,1,0,7.452,6.727,6.727,0,0,1-2.687,2.45,8.144,8.144,0,0,1-3.759.863h-8.535v1.035h8.535Zm0-2.277a6.666,6.666,0,0,0,3.087-.708,5.66,5.66,0,0,0,2.215-2,6.121,6.121,0,0,0,0-6.176,5.675,5.675,0,0,0-2.215-2,6.678,6.678,0,0,0-3.087-.707h-8.535v1.035h8.535a5.314,5.314,0,0,1,3.577,1.259,4.9,4.9,0,0,1,0,7,5.31,5.31,0,0,1-3.577,1.26h-8.535V248.4h8.535Zm0-2.278a4.029,4.029,0,0,0,2.651-.9,3.7,3.7,0,0,0,0-5.244,4.034,4.034,0,0,0-2.651-.9h-8.535v1.035h8.535a3.026,3.026,0,0,1,1.87.587,2.675,2.675,0,0,1,0,3.778,2.97,2.97,0,0,1-1.87.6h-8.535v1.035h8.535Zm8.244,16.148-5.266-10.9a2.728,2.728,0,0,1-.527.155c-0.181.035-.357,0.064-0.526,0.086l5.121,10.662h1.2Zm-2.651,0-5.048-10.489q-0.291.035-.6,0.052c-0.206.011-.405,0.017-0.6,0.017l5.048,10.42h1.2Zm-2.651,0-5.012-10.386h-1.2l5.012,10.386h1.2Zm35.864-8.678a12.7,12.7,0,0,1-2.851,4.261,13.237,13.237,0,0,1-4.431,2.864,16.626,16.626,0,0,1-11.549,0,13.227,13.227,0,0,1-4.431-2.864,12.7,12.7,0,0,1-2.851-4.261,13.994,13.994,0,0,1,0-10.385,12.7,12.7,0,0,1,2.851-4.261,13.243,13.243,0,0,1,4.431-2.864,16.626,16.626,0,0,1,11.549,0,13.253,13.253,0,0,1,4.431,2.864,12.7,12.7,0,0,1,2.851,4.261A13.994,13.994,0,0,1,149.124,253.6Zm-2.815.362a10.41,10.41,0,0,1-4.031,4,13.708,13.708,0,0,1-12.4,0,10.37,10.37,0,0,1-4.049-4,11.63,11.63,0,0,1,0-11.127,10.421,10.421,0,0,1,4.049-3.985,13.708,13.708,0,0,1,12.4,0,10.461,10.461,0,0,1,4.031,3.985A11.63,11.63,0,0,1,146.309,253.958Zm-2.07-1.155a8.147,8.147,0,0,1-3.16,3.174,11.11,11.11,0,0,1-10,0A8.109,8.109,0,0,1,127.9,252.8a9.422,9.422,0,0,1,0-8.8,8.111,8.111,0,0,1,3.178-3.175,11.11,11.11,0,0,1,10,0,8.149,8.149,0,0,1,3.16,3.175A9.422,9.422,0,0,1,144.239,252.8Zm-2.615,4.105a9.137,9.137,0,0,0,3.559-3.571,10.507,10.507,0,0,0,0-9.885,9.179,9.179,0,0,0-3.559-3.553,12.28,12.28,0,0,0-11.113,0,9.175,9.175,0,0,0-3.56,3.553,10.515,10.515,0,0,0,0,9.885,9.133,9.133,0,0,0,3.56,3.571A12.28,12.28,0,0,0,141.624,256.908Zm-0.309,2.657a12.248,12.248,0,0,0,4.032-2.605,11.263,11.263,0,0,0,2.578-3.847,12.905,12.905,0,0,0,0-9.419,11.458,11.458,0,0,0-2.578-3.864,11.894,11.894,0,0,0-4.032-2.605,15.241,15.241,0,0,0-10.5,0,11.9,11.9,0,0,0-4.031,2.605,11.46,11.46,0,0,0-2.579,3.864,12.919,12.919,0,0,0,0,9.419,11.266,11.266,0,0,0,2.579,3.847,12.254,12.254,0,0,0,4.031,2.605A14.985,14.985,0,0,0,141.315,259.565Zm0.945,2.105a14.4,14.4,0,0,0,4.776-3.088,13.866,13.866,0,0,0,3.087-4.572,14.976,14.976,0,0,0,0-11.213,13.866,13.866,0,0,0-3.087-4.572,14.416,14.416,0,0,0-4.776-3.088,17.664,17.664,0,0,0-12.385,0,14.416,14.416,0,0,0-4.776,3.088,13.851,13.851,0,0,0-3.087,4.572,14.976,14.976,0,0,0,0,11.213,13.851,13.851,0,0,0,3.087,4.572,14.4,14.4,0,0,0,4.776,3.088A17.664,17.664,0,0,0,142.26,261.67Zm17.741,0.6v-27.74h-1.089v27.74H160Zm-4.794,0v-27.74h-1.089v27.74h1.089Zm2.4,0v-27.74h-1.089v27.74H157.6Zm17.251,0a17.4,17.4,0,0,0,6.065-1.018,14.365,14.365,0,0,0,4.794-2.881,13.132,13.132,0,0,0,3.16-4.4,14.307,14.307,0,0,0,0-11.127,13.176,13.176,0,0,0-3.16-4.382,14.6,14.6,0,0,0-4.794-2.9,17.148,17.148,0,0,0-6.065-1.035h-4.031v1.035h3.995a16.151,16.151,0,0,1,5.647.948,13.45,13.45,0,0,1,4.449,2.674,12.047,12.047,0,0,1,2.924,4.072,13.283,13.283,0,0,1,0,10.281,12.027,12.027,0,0,1-2.924,4.072,13.45,13.45,0,0,1-4.449,2.674,16.128,16.128,0,0,1-5.647.949h-3.995v1.035h4.031Zm-5.339,0v-27.74h-1.089v27.74h1.089Zm-4.794,0v-27.74h-1.089v27.74h1.089Zm2.4,0v-27.74H166.03v27.74h1.089ZM174.855,260a14.19,14.19,0,0,0,6.61-1.483,11.309,11.309,0,0,0,4.5-4.106,11.815,11.815,0,0,0,0-11.99,11.474,11.474,0,0,0-4.5-4.1,14.05,14.05,0,0,0-6.61-1.5h-4.031v1.035h3.995a13.076,13.076,0,0,1,6.065,1.345,10.282,10.282,0,0,1,4.1,3.727,10.818,10.818,0,0,1,0,10.954,10.236,10.236,0,0,1-4.1,3.744,13.076,13.076,0,0,1-6.065,1.345h-3.995V260h4.031Zm0-2.277a11.774,11.774,0,0,0,5.375-1.173,8.875,8.875,0,0,0,3.632-3.278,9.085,9.085,0,0,0-3.632-12.99,11.638,11.638,0,0,0-5.375-1.19h-4.031v1.035h3.995a10.671,10.671,0,0,1,4.83,1.035,7.869,7.869,0,0,1,3.233,2.9,8.682,8.682,0,0,1,0,8.678,7.825,7.825,0,0,1-3.233,2.915,10.671,10.671,0,0,1-4.83,1.035h-3.995v1.035h4.031Zm23.934,4.555v-27.74H197.7v27.74h1.089Zm-4.794,0v-27.74h-1.089v27.74H194Zm2.4,0v-27.74H195.3v27.74h1.089Zm18.2-26.705v-1.035H200.1v1.035h14.491Zm0,2.277v-1.035H200.1v1.035h14.491Zm0,2.277v-1.035H200.1v1.035h14.491Zm-2.071,6.521v-1.035H200.1v1.035h12.42Zm0,2.277v-1.035H200.1v1.035h12.42Zm0,2.277v-1.035H200.1V251.2h12.42Zm2.071,6.521v-1.035H200.1v1.035h14.491Zm0,2.277v-1.035H200.1V260h14.491Zm0,2.278v-1.035H200.1v1.035h14.491Zm8.788,0v-27.74h-1.089v27.74h1.089Zm-4.794,0v-27.74h-1.089v27.74h1.089Zm2.4,0v-27.74H219.89v27.74h1.089Zm18.2-26.705v-1.035H224.684v1.035h14.491Zm0,2.277v-1.035H224.684v1.035h14.491Zm0,2.277v-1.035H224.684v1.035h14.491Zm-2.07,6.521v-1.035H224.684v1.035h12.421Zm0,2.277v-1.035H224.684v1.035h12.421Zm0,2.277v-1.035H224.684V251.2h12.421Zm31.36,2.4a12.7,12.7,0,0,1-2.851,4.261,13.237,13.237,0,0,1-4.431,2.864,16.626,16.626,0,0,1-11.549,0,13.237,13.237,0,0,1-4.431-2.864,12.7,12.7,0,0,1-2.851-4.261,13.994,13.994,0,0,1,0-10.385,12.7,12.7,0,0,1,2.851-4.261,13.253,13.253,0,0,1,4.431-2.864,16.626,16.626,0,0,1,11.549,0,13.253,13.253,0,0,1,4.431,2.864,12.7,12.7,0,0,1,2.851,4.261A13.994,13.994,0,0,1,268.465,253.6Zm-2.814.362a10.419,10.419,0,0,1-4.032,4,13.708,13.708,0,0,1-12.4,0,10.377,10.377,0,0,1-4.049-4,11.63,11.63,0,0,1,0-11.127,10.428,10.428,0,0,1,4.049-3.985,13.708,13.708,0,0,1,12.4,0,10.47,10.47,0,0,1,4.032,3.985A11.638,11.638,0,0,1,265.651,253.958ZM263.58,252.8a8.144,8.144,0,0,1-3.159,3.174,11.112,11.112,0,0,1-10.006,0,8.109,8.109,0,0,1-3.178-3.174,9.422,9.422,0,0,1,0-8.8,8.111,8.111,0,0,1,3.178-3.175,11.112,11.112,0,0,1,10.006,0,8.147,8.147,0,0,1,3.159,3.175A9.422,9.422,0,0,1,263.58,252.8Zm-2.615,4.105a9.14,9.14,0,0,0,3.56-3.571,10.515,10.515,0,0,0,0-9.885,9.182,9.182,0,0,0-3.56-3.553,12.28,12.28,0,0,0-11.113,0,9.172,9.172,0,0,0-3.559,3.553,10.507,10.507,0,0,0,0,9.885,9.13,9.13,0,0,0,3.559,3.571A12.28,12.28,0,0,0,260.965,256.908Zm-0.308,2.657a12.254,12.254,0,0,0,4.031-2.605,11.28,11.28,0,0,0,2.579-3.847,12.919,12.919,0,0,0,0-9.419,11.475,11.475,0,0,0-2.579-3.864,11.9,11.9,0,0,0-4.031-2.605,15.241,15.241,0,0,0-10.5,0,11.894,11.894,0,0,0-4.032,2.605,11.458,11.458,0,0,0-2.578,3.864,12.905,12.905,0,0,0,0,9.419,11.263,11.263,0,0,0,2.578,3.847,12.248,12.248,0,0,0,4.032,2.605A14.985,14.985,0,0,0,260.657,259.565Zm0.944,2.105a14.4,14.4,0,0,0,4.776-3.088,13.851,13.851,0,0,0,3.087-4.572,14.964,14.964,0,0,0,0-11.213,13.851,13.851,0,0,0-3.087-4.572,14.416,14.416,0,0,0-4.776-3.088,17.664,17.664,0,0,0-12.385,0,14.4,14.4,0,0,0-4.775,3.088,13.854,13.854,0,0,0-3.088,4.572,14.976,14.976,0,0,0,0,11.213,13.854,13.854,0,0,0,3.088,4.572,14.386,14.386,0,0,0,4.775,3.088A17.664,17.664,0,0,0,261.6,261.67Zm37.136,0.6v-27.74h-1.09v27.74h1.09Zm-4.794,0v-27.74h-1.09v27.74h1.09Zm2.4,0v-27.74h-1.09v27.74h1.09Zm-17,0v-27.74h-1.089v27.74h1.089Zm-4.794,0v-27.74h-1.089v27.74h1.089Zm2.4,0v-27.74h-1.089v27.74h1.089Zm14.6-11.386-10.9-14.871v1.829l10.9,14.87v-1.828Zm0,4-10.9-14.871v1.829l10.9,14.871V254.89Zm0,4-10.9-14.87v1.828l10.9,14.871v-1.829Zm22.045,3.382a17.408,17.408,0,0,0,6.066-1.018,14.385,14.385,0,0,0,4.794-2.881,13.13,13.13,0,0,0,3.159-4.4,14.307,14.307,0,0,0,0-11.127,13.173,13.173,0,0,0-3.159-4.382,14.624,14.624,0,0,0-4.794-2.9,17.158,17.158,0,0,0-6.066-1.035h-4.031v1.035h3.995a16.157,16.157,0,0,1,5.648.948,13.46,13.46,0,0,1,4.449,2.674,12.057,12.057,0,0,1,2.923,4.072,13.283,13.283,0,0,1,0,10.281,12.038,12.038,0,0,1-2.923,4.072,13.46,13.46,0,0,1-4.449,2.674,16.134,16.134,0,0,1-5.648.949h-3.995v1.035h4.031Zm-5.338,0v-27.74h-1.09v27.74h1.09Zm-4.794,0v-27.74h-1.09v27.74h1.09Zm2.4,0v-27.74h-1.09v27.74h1.09ZM313.59,260a14.19,14.19,0,0,0,6.61-1.483,11.309,11.309,0,0,0,4.5-4.106,11.815,11.815,0,0,0,0-11.99,11.474,11.474,0,0,0-4.5-4.1,14.05,14.05,0,0,0-6.61-1.5h-4.031v1.035h3.995a13.076,13.076,0,0,1,6.065,1.345,10.275,10.275,0,0,1,4.1,3.727,10.818,10.818,0,0,1,0,10.954,10.229,10.229,0,0,1-4.1,3.744,13.076,13.076,0,0,1-6.065,1.345h-3.995V260h4.031Zm0-2.277a11.781,11.781,0,0,0,5.376-1.173,8.878,8.878,0,0,0,3.631-3.278,9.086,9.086,0,0,0-3.631-12.99,11.645,11.645,0,0,0-5.376-1.19h-4.031v1.035h3.995a10.671,10.671,0,0,1,4.83,1.035,7.856,7.856,0,0,1,3.233,2.9,8.682,8.682,0,0,1,0,8.678,7.813,7.813,0,0,1-3.233,2.915,10.671,10.671,0,0,1-4.83,1.035h-3.995v1.035h4.031Z"/>
  </g>
</svg>
