<svg xmlns="http://www.w3.org/2000/svg" width="1000" height="500" viewBox="0 0 1000 500">
  <defs>
    <style>
      .cls-1 {
        fill-rule: evenodd;
      }
    </style>
  </defs>
  <g id="Plan_de_travail_1" data-name="Plan de travail 1">
    <path id="Fond_1" data-name="Fond 1" class="cls-1" d="M407.385,237.045V191.219h-1.8v45.826h1.8Zm-7.92,0V191.219h-1.8v45.826h1.8Zm3.96,0V191.219h-1.8v45.826h1.8Zm26.639-7.523v-1.71H409.545v1.71h20.519Zm0,3.761v-1.71H409.545v1.71h20.519Zm0,3.762v-1.71H409.545v1.71h20.519Zm25.169-7.979a8.4,8.4,0,0,0,3.359-3.506,10.637,10.637,0,0,0,1.11-4.873V191.219h-1.8v29.468a8.443,8.443,0,0,1-1.979,5.643q-1.98,2.337-6.36,2.337t-6.36-2.337a8.438,8.438,0,0,1-1.98-5.643V191.219h-1.8v29.468a10.637,10.637,0,0,0,1.11,4.873,8.4,8.4,0,0,0,3.36,3.506A12.926,12.926,0,0,0,455.233,229.066Zm3.989,6.526a16.175,16.175,0,0,0,6.21-6.241,17.507,17.507,0,0,0,2.19-8.664V191.219h-1.8v29.468a15.893,15.893,0,0,1-1.95,7.809,14.411,14.411,0,0,1-5.58,5.614,19.358,19.358,0,0,1-17.459,0,14.411,14.411,0,0,1-5.58-5.614,15.892,15.892,0,0,1-1.949-7.809V191.219h-1.8v29.468a17.5,17.5,0,0,0,2.19,8.664,16.11,16.11,0,0,0,6.239,6.241A21.3,21.3,0,0,0,459.222,235.592Zm-2.009-3.278a12.366,12.366,0,0,0,4.8-4.873,13.958,13.958,0,0,0,1.65-6.754V191.219h-1.8v29.468a12.36,12.36,0,0,1-1.41,5.9,10.665,10.665,0,0,1-4.139,4.246,15.009,15.009,0,0,1-13.47,0,10.608,10.608,0,0,1-4.17-4.246,12.36,12.36,0,0,1-1.41-5.9V191.219h-1.8v29.468a13.958,13.958,0,0,0,1.65,6.754,12.362,12.362,0,0,0,4.8,4.873A16.954,16.954,0,0,0,457.213,232.314Zm47.247-3.191a15.994,15.994,0,0,0,5.28-3.363l-1.26-1.2a14.464,14.464,0,0,1-4.74,2.964,17.147,17.147,0,0,1-6.3,1.083,16.39,16.39,0,0,1-8.25-1.967,13.4,13.4,0,0,1-5.25-5.244,15.569,15.569,0,0,1,0-14.534,13.4,13.4,0,0,1,5.25-5.244,16.39,16.39,0,0,1,8.25-1.966,17.147,17.147,0,0,1,6.3,1.083,14.464,14.464,0,0,1,4.74,2.964l1.26-1.2a15.209,15.209,0,0,0-5.28-3.392,19.087,19.087,0,0,0-7.019-1.225,18.21,18.21,0,0,0-9.18,2.194,15.164,15.164,0,0,0-5.88,5.871,17.36,17.36,0,0,0,0,16.33,15.093,15.093,0,0,0,5.88,5.9,18.2,18.2,0,0,0,9.18,2.194A18.681,18.681,0,0,0,504.46,229.123Zm1.53,3.476a20.651,20.651,0,0,0,6.57-4.16l-1.32-1.254A17.174,17.174,0,0,1,505.27,231a21.4,21.4,0,0,1-7.829,1.368,20.5,20.5,0,0,1-10.23-2.45,17.145,17.145,0,0,1-6.69-6.612,19.22,19.22,0,0,1,0-18.382,17.2,17.2,0,0,1,6.69-6.583,20.507,20.507,0,0,1,10.23-2.451,21.4,21.4,0,0,1,7.829,1.368,17.176,17.176,0,0,1,5.97,3.819l1.32-1.254a19.794,19.794,0,0,0-6.57-4.19,23.047,23.047,0,0,0-8.549-1.51,23.282,23.282,0,0,0-8.67,1.539,19.672,19.672,0,0,0-6.66,4.3,18.935,18.935,0,0,0-4.26,6.384,21.323,21.323,0,0,0,0,15.56,18.618,18.618,0,0,0,4.26,6.356,20.26,20.26,0,0,0,6.66,4.3,22.906,22.906,0,0,0,8.67,1.567A22.648,22.648,0,0,0,505.99,232.6Zm1.53,3.477a24.437,24.437,0,0,0,7.86-4.959l-1.26-1.2a22.558,22.558,0,0,1-7.29,4.588,27.264,27.264,0,0,1-18.929-.029,21.875,21.875,0,0,1-7.32-4.73,20.992,20.992,0,0,1-4.71-7.04,23.136,23.136,0,0,1,0-17.156,20.988,20.988,0,0,1,4.71-7.039,21.877,21.877,0,0,1,7.32-4.731,27.256,27.256,0,0,1,18.929-.028,22.542,22.542,0,0,1,7.29,4.588l1.26-1.2a23.6,23.6,0,0,0-7.86-4.987,29.172,29.172,0,0,0-20.309.057,23.79,23.79,0,0,0-7.89,5.1,22.871,22.871,0,0,0-5.1,7.552,24.729,24.729,0,0,0,0,18.524,22.84,22.84,0,0,0,5.1,7.552,23.792,23.792,0,0,0,7.89,5.1A28.97,28.97,0,0,0,507.52,236.076Zm21.178,0.969,17.46-45.826h-1.92l-17.46,45.826h1.92Zm-8.4,0,17.4-45.826h-1.86l-17.459,45.826h1.92Zm4.2,0,17.46-45.826h-1.98l-17.4,45.826H524.5Zm39.359,0-16.62-43.66-0.959,2.565,15.659,41.1h1.92Zm-4.2,0-14.519-38.131-0.9,2.622,13.5,35.509h1.92Zm-4.2,0L543.1,204.5l-0.96,2.564,11.4,29.981h1.92ZM545.8,221.884l-0.66-1.71h-7.92l-0.66,1.71h9.24Zm1.439,3.819-0.659-1.71h-10.8l-0.66,1.71h12.119Zm1.44,3.762-0.66-1.71H534.338l-0.66,1.71h15Zm42.9-.884a5.392,5.392,0,0,0,2.82-4.7,4.781,4.781,0,0,0-2.28-4.161,21.244,21.244,0,0,0-6.42-2.622l-3.719-.969q-6.781-1.766-10.23-4.588a9.2,9.2,0,0,1-3.45-7.495,9.792,9.792,0,0,1,2.07-6.156,14.125,14.125,0,0,1,5.64-4.246,20.029,20.029,0,0,1,8.13-1.568,21.336,21.336,0,0,1,7.5,1.254,14.4,14.4,0,0,1,5.52,3.534,10.164,10.164,0,0,1,2.7,5.3l1.74-.456a11.8,11.8,0,0,0-3.09-5.985,16.149,16.149,0,0,0-6.12-3.961,23.155,23.155,0,0,0-8.249-1.4,22.1,22.1,0,0,0-9.03,1.767,15.657,15.657,0,0,0-6.3,4.816,11.259,11.259,0,0,0-2.31,6.983,10.579,10.579,0,0,0,3.78,8.606q3.78,3.135,11.22,5.187l3.72,1.026a21.153,21.153,0,0,1,5.4,2.109,3.57,3.57,0,0,1,1.98,3.135q0,2.052-2.37,3.363a12.645,12.645,0,0,1-6.149,1.311,12.226,12.226,0,0,1-5.97-1.283q-2.31-1.282-2.31-3.22l-1.74.456a5.3,5.3,0,0,0,3,4.189,14.067,14.067,0,0,0,7.02,1.567A13.81,13.81,0,0,0,591.575,228.581Zm-0.03,4.246a11.859,11.859,0,0,0,5.01-3.619,8.423,8.423,0,0,0,1.8-5.329,7.834,7.834,0,0,0-3.12-6.526,24.4,24.4,0,0,0-8.7-3.905l-3.6-.969a26.657,26.657,0,0,1-7.95-3.306,5.909,5.909,0,0,1-2.73-5.129,6.483,6.483,0,0,1,1.53-4.247,10.135,10.135,0,0,1,4.23-2.907,16.739,16.739,0,0,1,6.12-1.054,15.355,15.355,0,0,1,8.129,1.995,7.129,7.129,0,0,1,3.69,5.3l1.8-.456a8.326,8.326,0,0,0-2.28-4.5,12.293,12.293,0,0,0-4.77-2.992,19.192,19.192,0,0,0-6.569-1.055,18.326,18.326,0,0,0-7.02,1.282,11.835,11.835,0,0,0-4.89,3.506,8,8,0,0,0-1.77,5.13,7.379,7.379,0,0,0,3.12,6.212,26.156,26.156,0,0,0,8.94,3.876l3.659,0.969a22.369,22.369,0,0,1,7.62,3.278,6.463,6.463,0,0,1,2.76,5.5,6.891,6.891,0,0,1-1.56,4.446,10.116,10.116,0,0,1-4.38,3.02,18.154,18.154,0,0,1-6.539,1.083,15.849,15.849,0,0,1-8.37-2,7.309,7.309,0,0,1-3.75-5.3l-1.8.456a8.957,8.957,0,0,0,4.47,6.184,17.6,17.6,0,0,0,9.45,2.365A19.637,19.637,0,0,0,591.545,232.827Zm2.04,3.306a15.12,15.12,0,0,0,6.42-4.93,11.92,11.92,0,0,0,2.31-7.21,11.053,11.053,0,0,0-3.84-8.863q-3.84-3.278-11.1-5.33l-3.419-.969a30.873,30.873,0,0,1-5.61-2.051,3.23,3.23,0,0,1-2.13-2.85q0-1.938,2.31-3.135a12.067,12.067,0,0,1,5.61-1.2,11.326,11.326,0,0,1,5.669,1.254,4,4,0,0,1,2.31,3.249l1.74-.456a5.734,5.734,0,0,0-3-4.161,12.817,12.817,0,0,0-6.719-1.6,13.184,13.184,0,0,0-6.96,1.681,5.072,5.072,0,0,0-2.76,4.475,4.313,4.313,0,0,0,2.34,3.818,26.909,26.909,0,0,0,6.72,2.622l3.539,0.969a26.9,26.9,0,0,1,9.96,4.674,9.522,9.522,0,0,1,3.54,7.752,10.406,10.406,0,0,1-2.07,6.412,13.675,13.675,0,0,1-5.76,4.332,21.887,21.887,0,0,1-8.609,1.567,22.353,22.353,0,0,1-7.74-1.254,14.209,14.209,0,0,1-5.55-3.5,10.528,10.528,0,0,1-2.73-5.329l-1.74.456a12.048,12.048,0,0,0,3.15,6.013,16.252,16.252,0,0,0,6.18,3.933A26.319,26.319,0,0,0,593.585,236.133ZM296.27,309.042V263.216h-1.8v45.826h1.8Zm-7.919,0V263.216h-1.8v45.826h1.8Zm3.96,0V263.216h-1.8v45.826h1.8Zm30.058-44.116v-1.71H298.43v1.71h23.939Zm0,3.762v-1.71H298.43v1.71h23.939Zm0,3.762v-1.71H298.43v1.71h23.939Zm-3.42,10.772v-1.71H298.43v1.71h20.519Zm0,3.762v-1.71H298.43v1.71h20.519Zm0,3.762v-1.71H298.43v1.71h20.519Zm17.339,18.3V263.216h-1.8v45.826h1.8Zm-7.919,0V263.216h-1.8v45.826h1.8Zm3.959,0V263.216h-1.8v45.826h1.8Zm20.219-19.151a15.075,15.075,0,0,0,7.11-1.682,13.1,13.1,0,0,0,5.1-4.673,13.843,13.843,0,0,0,0-13.965,13.122,13.122,0,0,0-5.1-4.674,15.1,15.1,0,0,0-7.11-1.681h-14.1v1.71h14.1a13.465,13.465,0,0,1,6.21,1.425,11.133,11.133,0,0,1,4.44,4.047,12.307,12.307,0,0,1,0,12.311,11.126,11.126,0,0,1-4.44,4.047,13.452,13.452,0,0,1-6.21,1.425h-14.1v1.71h14.1Zm0-3.762a11.017,11.017,0,0,0,5.1-1.168,9.37,9.37,0,0,0,3.66-3.306,10.119,10.119,0,0,0,0-10.2,9.377,9.377,0,0,0-3.66-3.306,11.03,11.03,0,0,0-5.1-1.168h-14.1v1.71h14.1a8.782,8.782,0,0,1,5.91,2.08,8.1,8.1,0,0,1,0,11.571,8.777,8.777,0,0,1-5.91,2.08h-14.1v1.71h14.1Zm0-3.762a6.661,6.661,0,0,0,4.38-1.482,6.112,6.112,0,0,0,0-8.663,6.666,6.666,0,0,0-4.38-1.482h-14.1v1.71h14.1a5,5,0,0,1,3.09.969,4.419,4.419,0,0,1,0,6.241,4.9,4.9,0,0,1-3.09,1h-14.1v1.71h14.1Zm13.62,26.675-8.7-18.011a4.556,4.556,0,0,1-.87.256q-0.45.086-.87,0.143l8.46,17.612h1.98Zm-4.38,0-8.34-17.327c-0.32.038-.65,0.067-0.99,0.085s-0.67.029-.989,0.029l8.339,17.213h1.98Zm-4.38,0-8.279-17.156h-1.98l8.279,17.156h1.98Zm59.247-14.335a20.976,20.976,0,0,1-4.709,7.039,21.882,21.882,0,0,1-7.32,4.731,27.464,27.464,0,0,1-19.079,0,21.862,21.862,0,0,1-7.32-4.731,20.978,20.978,0,0,1-4.71-7.039,23.123,23.123,0,0,1,0-17.156,20.988,20.988,0,0,1,4.71-7.039,21.877,21.877,0,0,1,7.32-4.731,27.464,27.464,0,0,1,19.079,0,21.9,21.9,0,0,1,7.32,4.731,20.986,20.986,0,0,1,4.709,7.039A23.123,23.123,0,0,1,416.654,294.707Zm-4.649.6a17.2,17.2,0,0,1-6.66,6.611,22.635,22.635,0,0,1-20.489,0,17.136,17.136,0,0,1-6.69-6.611,19.22,19.22,0,0,1,0-18.382,17.2,17.2,0,0,1,6.69-6.583,22.635,22.635,0,0,1,20.489,0,17.264,17.264,0,0,1,6.66,6.583A19.227,19.227,0,0,1,412.005,295.306Zm-3.42-1.91a13.455,13.455,0,0,1-5.22,5.244,18.354,18.354,0,0,1-16.529,0,13.4,13.4,0,0,1-5.25-5.244,15.569,15.569,0,0,1,0-14.534,13.4,13.4,0,0,1,5.25-5.244,18.354,18.354,0,0,1,16.529,0,13.461,13.461,0,0,1,5.22,5.244A15.569,15.569,0,0,1,408.585,293.4Zm-4.32,6.783a15.113,15.113,0,0,0,5.88-5.9,17.36,17.36,0,0,0,0-16.33,15.177,15.177,0,0,0-5.88-5.871,20.3,20.3,0,0,0-18.359,0,15.157,15.157,0,0,0-5.88,5.871,17.36,17.36,0,0,0,0,16.33,15.093,15.093,0,0,0,5.88,5.9A20.3,20.3,0,0,0,404.265,300.179Zm-0.51,4.389a20.246,20.246,0,0,0,6.66-4.3,18.6,18.6,0,0,0,4.259-6.355,21.323,21.323,0,0,0,0-15.56,18.932,18.932,0,0,0-4.259-6.384,19.672,19.672,0,0,0-6.66-4.3,25.188,25.188,0,0,0-17.339,0,19.672,19.672,0,0,0-6.66,4.3,18.935,18.935,0,0,0-4.26,6.384,21.323,21.323,0,0,0,0,15.56,18.6,18.6,0,0,0,4.26,6.355,20.246,20.246,0,0,0,6.66,4.3A24.766,24.766,0,0,0,403.755,304.568Zm1.56,3.477a23.8,23.8,0,0,0,7.89-5.1,22.88,22.88,0,0,0,5.1-7.552,24.729,24.729,0,0,0,0-18.524,22.891,22.891,0,0,0-5.1-7.552,23.8,23.8,0,0,0-7.89-5.1,29.163,29.163,0,0,0-20.459,0,23.78,23.78,0,0,0-7.89,5.1,22.878,22.878,0,0,0-5.1,7.552,24.729,24.729,0,0,0,0,18.524,22.868,22.868,0,0,0,5.1,7.552,23.782,23.782,0,0,0,7.89,5.1A29.177,29.177,0,0,0,405.315,308.045Zm29.308,1V263.216h-1.8v45.826h1.8Zm-7.919,0V263.216h-1.8v45.826h1.8Zm3.96,0V263.216h-1.8v45.826h1.8Zm28.5,0a28.768,28.768,0,0,0,10.02-1.681,23.746,23.746,0,0,0,7.919-4.76,21.677,21.677,0,0,0,5.22-7.267,23.638,23.638,0,0,0,0-18.382,21.764,21.764,0,0,0-5.22-7.238,24.127,24.127,0,0,0-7.919-4.788,28.336,28.336,0,0,0-10.02-1.71H452.5v1.71h6.6a26.694,26.694,0,0,1,9.33,1.567,22.229,22.229,0,0,1,7.349,4.418,19.885,19.885,0,0,1,4.83,6.725,21.946,21.946,0,0,1,0,16.986,19.865,19.865,0,0,1-4.83,6.725,22.2,22.2,0,0,1-7.349,4.418,26.671,26.671,0,0,1-9.33,1.567h-6.6v1.71h6.66Zm-8.82,0V263.216h-1.8v45.826h1.8Zm-7.919,0V263.216h-1.8v45.826h1.8Zm3.96,0V263.216h-1.8v45.826h1.8Zm12.779-3.762a23.434,23.434,0,0,0,10.92-2.451,18.671,18.671,0,0,0,7.439-6.782,19.513,19.513,0,0,0,0-19.807,18.958,18.958,0,0,0-7.439-6.783,23.224,23.224,0,0,0-10.92-2.479H452.5v1.71h6.6a21.6,21.6,0,0,1,10.02,2.223,16.985,16.985,0,0,1,6.779,6.155,17.871,17.871,0,0,1,0,18.1,16.9,16.9,0,0,1-6.779,6.184,21.6,21.6,0,0,1-10.02,2.223h-6.6v1.71h6.66Zm0-3.762a19.444,19.444,0,0,0,8.88-1.938,14.676,14.676,0,0,0,6-5.414,15.009,15.009,0,0,0-6-21.46,19.222,19.222,0,0,0-8.88-1.966H452.5v1.71h6.6a17.633,17.633,0,0,1,7.98,1.71,12.978,12.978,0,0,1,5.339,4.787,14.338,14.338,0,0,1,0,14.335,12.91,12.91,0,0,1-5.339,4.817,17.633,17.633,0,0,1-7.98,1.709h-6.6v1.71h6.66Zm39.538,7.524V263.216h-1.8v45.826h1.8Zm-7.919,0V263.216h-1.8v45.826h1.8Zm3.959,0V263.216h-1.8v45.826h1.8ZM524.8,264.926v-1.71H500.86v1.71H524.8Zm0,3.762v-1.71H500.86v1.71H524.8Zm0,3.762v-1.71H500.86v1.71H524.8Zm-3.42,10.772v-1.71H500.86v1.71h20.519Zm0,3.762v-1.71H500.86v1.71h20.519Zm0,3.762v-1.71H500.86v1.71h20.519Zm3.42,10.772v-1.71H500.86v1.71H524.8Zm0,3.762v-1.71H500.86v1.71H524.8Zm0,3.762v-1.71H500.86v1.71H524.8Zm14.519,0V263.216h-1.8v45.826h1.8Zm-7.92,0V263.216h-1.8v45.826h1.8Zm3.96,0V263.216h-1.8v45.826h1.8Zm30.059-44.116v-1.71H541.478v1.71h23.939Zm0,3.762v-1.71H541.478v1.71h23.939Zm0,3.762v-1.71H541.478v1.71h23.939ZM562,283.222v-1.71H541.478v1.71H562Zm0,3.762v-1.71H541.478v1.71H562Zm0,3.762v-1.71H541.478v1.71H562Zm51.807,3.961a20.993,20.993,0,0,1-4.71,7.039,21.872,21.872,0,0,1-7.32,4.731,27.464,27.464,0,0,1-19.079,0,21.872,21.872,0,0,1-7.32-4.731,20.961,20.961,0,0,1-4.709-7.039,23.123,23.123,0,0,1,0-17.156,20.971,20.971,0,0,1,4.709-7.039,21.887,21.887,0,0,1,7.32-4.731,27.464,27.464,0,0,1,19.079,0,21.887,21.887,0,0,1,7.32,4.731,21,21,0,0,1,4.71,7.039A23.123,23.123,0,0,1,613.8,294.707Zm-4.65.6a17.2,17.2,0,0,1-6.66,6.611,22.635,22.635,0,0,1-20.489,0,17.143,17.143,0,0,1-6.69-6.611,19.227,19.227,0,0,1,0-18.382,17.21,17.21,0,0,1,6.69-6.583,22.635,22.635,0,0,1,20.489,0,17.264,17.264,0,0,1,6.66,6.583A19.22,19.22,0,0,1,609.154,295.306Zm-3.42-1.91a13.455,13.455,0,0,1-5.22,5.244,18.354,18.354,0,0,1-16.529,0,13.4,13.4,0,0,1-5.25-5.244,15.569,15.569,0,0,1,0-14.534,13.408,13.408,0,0,1,5.25-5.244,18.354,18.354,0,0,1,16.529,0,13.461,13.461,0,0,1,5.22,5.244A15.569,15.569,0,0,1,605.734,293.4Zm-4.32,6.783a15.1,15.1,0,0,0,5.88-5.9,17.36,17.36,0,0,0,0-16.33,15.164,15.164,0,0,0-5.88-5.871,20.3,20.3,0,0,0-18.359,0,15.164,15.164,0,0,0-5.88,5.871,17.36,17.36,0,0,0,0,16.33,15.1,15.1,0,0,0,5.88,5.9A20.3,20.3,0,0,0,601.414,300.179Zm-0.51,4.389a20.246,20.246,0,0,0,6.66-4.3,18.619,18.619,0,0,0,4.26-6.355,21.323,21.323,0,0,0,0-15.56,18.949,18.949,0,0,0-4.26-6.384,19.672,19.672,0,0,0-6.66-4.3,25.188,25.188,0,0,0-17.339,0,19.672,19.672,0,0,0-6.66,4.3,18.917,18.917,0,0,0-4.259,6.384,21.323,21.323,0,0,0,0,15.56,18.588,18.588,0,0,0,4.259,6.355,20.246,20.246,0,0,0,6.66,4.3A24.766,24.766,0,0,0,600.9,304.568Zm1.56,3.477a23.792,23.792,0,0,0,7.89-5.1,22.883,22.883,0,0,0,5.1-7.552,24.729,24.729,0,0,0,0-18.524,22.893,22.893,0,0,0-5.1-7.552,23.79,23.79,0,0,0-7.89-5.1,29.163,29.163,0,0,0-20.459,0,23.79,23.79,0,0,0-7.89,5.1,22.875,22.875,0,0,0-5.1,7.552,24.729,24.729,0,0,0,0,18.524,22.865,22.865,0,0,0,5.1,7.552,23.792,23.792,0,0,0,7.89,5.1A29.177,29.177,0,0,0,602.464,308.045Zm61.347,1V263.216h-1.8v45.826h1.8Zm-7.919,0V263.216h-1.8v45.826h1.8Zm3.96,0V263.216h-1.8v45.826h1.8Zm-28.079,0V263.216h-1.8v45.826h1.8Zm-7.92,0V263.216h-1.8v45.826h1.8Zm3.96,0V263.216h-1.8v45.826h1.8Zm24.119-18.809-18-24.566v3.021l18,24.566v-3.021Zm0,6.612-18-24.566V275.3l18,24.565v-3.02Zm0,6.611-18-24.566v3.021l18,24.566v-3.021Zm36.418,5.586a28.758,28.758,0,0,0,10.019-1.681,23.751,23.751,0,0,0,7.92-4.76,21.69,21.69,0,0,0,5.22-7.267,23.638,23.638,0,0,0,0-18.382,21.778,21.778,0,0,0-5.22-7.238,24.132,24.132,0,0,0-7.92-4.788,28.327,28.327,0,0,0-10.019-1.71h-6.66v1.71h6.6a26.688,26.688,0,0,1,9.329,1.567,22.224,22.224,0,0,1,7.35,4.418,19.9,19.9,0,0,1,4.83,6.725,21.946,21.946,0,0,1,0,16.986,19.879,19.879,0,0,1-4.83,6.725,22.19,22.19,0,0,1-7.35,4.418,26.665,26.665,0,0,1-9.329,1.567h-6.6v1.71h6.66Zm-8.82,0V263.216h-1.8v45.826h1.8Zm-7.92,0V263.216h-1.8v45.826h1.8Zm3.96,0V263.216h-1.8v45.826h1.8Zm12.78-3.762a23.427,23.427,0,0,0,10.919-2.451,18.667,18.667,0,0,0,7.44-6.782,19.513,19.513,0,0,0,0-19.807,18.954,18.954,0,0,0-7.44-6.783,23.217,23.217,0,0,0-10.919-2.479h-6.66v1.71h6.6a21.6,21.6,0,0,1,10.019,2.223,16.988,16.988,0,0,1,6.78,6.155,17.871,17.871,0,0,1,0,18.1,16.905,16.905,0,0,1-6.78,6.184,21.6,21.6,0,0,1-10.019,2.223h-6.6v1.71h6.66Zm0-3.762a19.437,19.437,0,0,0,8.879-1.938,14.672,14.672,0,0,0,6-5.414,15.008,15.008,0,0,0-6-21.46,19.215,19.215,0,0,0-8.879-1.966h-6.66v1.71h6.6a17.626,17.626,0,0,1,7.979,1.71,12.981,12.981,0,0,1,5.34,4.787,14.338,14.338,0,0,1,0,14.335,12.913,12.913,0,0,1-5.34,4.817,17.625,17.625,0,0,1-7.979,1.709h-6.6v1.71h6.66Z"/>
  </g>
</svg>
