<svg width="31" height="49" viewBox="0 0 31 49" fill="none" xmlns="http://www.w3.org/2000/svg">
<path fill-rule="evenodd" clip-rule="evenodd" d="M15.5 48.2186C15.0433 48.2186 14.6053 48.0371 14.2824 47.7142C13.9594 47.3913 13.778 46.9533 13.778 46.4966L13.778 5.88191L2.94329 16.7201C2.61995 17.0434 2.1814 17.2251 1.72413 17.2251C1.26685 17.2251 0.828306 17.0434 0.504963 16.7201C0.181621 16.3967 -2.94925e-05 15.9582 -2.95015e-05 15.5009C-2.95105e-05 15.0436 0.181621 14.6051 0.504963 14.2817L14.2808 0.505878C14.4408 0.345516 14.6308 0.218288 14.84 0.131477C15.0492 0.0446673 15.2735 -1.76125e-05 15.5 -1.76125e-05C15.7265 -1.76125e-05 15.9508 0.0446673 16.16 0.131477C16.3692 0.218288 16.5592 0.345516 16.7191 0.505878L30.495 14.2817C30.8183 14.6051 31 15.0436 31 15.5009C31 15.9582 30.8183 16.3967 30.495 16.7201C30.1717 17.0434 29.7331 17.2251 29.2758 17.2251C28.8186 17.2251 28.38 17.0434 28.0567 16.7201L17.222 5.88191L17.222 46.4966C17.222 46.9533 17.0405 47.3913 16.7176 47.7142C16.3947 48.0371 15.9567 48.2186 15.5 48.2186V48.2186Z" fill="black"/>
</svg>
